# xmcd
#
# Track frame offsets: 
#        150
#        15864
#        29647
#        42540
#        57921
#        68151
#        85252
#        98850
#        116744
#        132180
#        144921
#        159434
#        171314
#        188263
#        213857
#        229963
#        245122
#        264044
#        280992
#        296163
#        310249
#
# Disc length: 4408 seconds
#
# Revision: 0
# Processed by: cddbd v1.5.2PL0 Copyright (c) Steve Scherf et al.
# Submitted via: ExactAudioCopy v0.95b3
#
DISCID=2b113615
DTITLE=The Rolling Stones  - Strictly Stereo  FLAC
DYEAR=1900
DGENRE=
TTITLE0=It's All Over Now
TTITLE1=Time Is On My Side
TTITLE2=Heart Of Stone
TTITLE3=The Last Time
TTITLE4=Play WIth Fire
TTITLE5=(I Can't Get No) Satisfaction
TTITLE6=Get Off My Cloud
TTITLE7=19th Nervous Breakdown
TTITLE8=Paint It Black
TTITLE9=Mother's Little Helper
TTITLE10=Lady Jane
TTITLE11=Have You Seen Your Mother Baby
TTITLE12=Under My Thumb
TTITLE13=Out Of TIme
TTITLE14=Dandelion
TTITLE15=Ruby Tuesday
TTITLE16=She's A Rainbow
TTITLE17=Jumpin' Jack Flash
TTITLE18=Street Fighting Man
TTITLE19=Honky Tonk Women
TTITLE20=Gimme Shelter
EXTD=
EXTT0=
EXTT1=
EXTT2=
EXTT3=
EXTT4=
EXTT5=
EXTT6=
EXTT7=
EXTT8=
EXTT9=
EXTT10=
EXTT11=
EXTT12=
EXTT13=
EXTT14=
EXTT15=
EXTT16=
EXTT17=
EXTT18=
EXTT19=
EXTT20=
PLAYORDER=
